<svg xmlns="http://www.w3.org/2000/svg" xml:space="preserve" width="1500" height="1500" data-id="lg_SgrXnoJpmU69ANDG0r" data-version="1" viewBox="0 0 1500 1500"><path fill="#2e024e" stroke="transparent" d="M0 0h1500v1500H0z"/><g data-padding="20"><g transform="translate(-566.726 -574.483)scale(1.71604)"><rect width="265.401" height="82.49" x="359.528" y="578.378" fill="none" rx="0" ry="0" transform="matrix(.99 0 0 .99 280 233.12)"/><path fill="#d579ff" d="M644.846 831.247v-18.2h53.11v18.2h-15.63v37.91h-21.85v-37.91Zm80.38 39.21q-4.25 0-8.29-1.34-4.04-1.33-7.3-3.99-3.27-2.65-5.2-6.55-1.94-3.9-1.94-9.06 0-6.43 2.31-11.26 2.3-4.83 6.23-8.05 3.94-3.21 8.92-4.83 4.99-1.61 10.37-1.61 6.81 0 11.08 2.07t6.27 5.34 2 6.89q0 3.9-2.49 7.55t-7.32 6.01q-4.84 2.35-11.9 2.35-.66 0-1.77-.02t-1.91-.05q0 2.21 1.05 3.2 1.05.98 2.65 1.23 1.6.24 3.22.24 1.44 0 4.05-.47 2.62-.48 5.68-1.74 3.05-1.27 5.79-3.62l2.18 10.93q-4.14 3.58-10.49 5.18-6.34 1.6-13.19 1.6m-.94-24.56 7.69-1.72.67-5.38q0-.21.03-.4.04-.19.04-.4 0-3.1-2.88-3.1-2.5.22-3.48 1.71-.99 1.49-1.27 3.9-.28 2.4-.8 5.39m61.16 23.26v-22.52q0-4.71-1.62-6.99-1.62-2.29-3.13-2.29-1.58 0-2.19 1.34-.62 1.33-.62 3.2v27.26h-20.86v-43.67h11.52l5.02 6.81q1.79-2.66 4.55-4.54t6.01-2.9 6.48-1.02q4.18 0 7.62 1.98 3.45 1.99 5.34 5.64 2.85-3.62 6.71-5.62 3.87-2 7.98-2 4.04 0 7.37 1.84 3.34 1.85 5.36 5.33 2.02 3.47 2.02 8.36v29.79h-20.37v-22.52q0-4.71-1.48-6.99-1.47-2.29-2.99-2.29-1.44 0-2.12 1.18-.69 1.18-.69 2.83v27.79Zm88.84-45.32q5.9 0 9.85 2.39t5.94 6.37q1.98 3.99 1.98 8.87 0 3.38-.98 7.14-.98 3.75-3.14 7.35-2.16 3.61-5.68 6.54-3.51 2.93-8.5 4.72-4.99 1.8-11.7 1.94v11.38h-20.86v-55.05h11.52l4.88 6.74q4.22-4.53 8.63-6.46 4.4-1.93 8.06-1.93m-3.51 14.51q-1.55 0-3.24 1.21-1.68 1.21-3.12 3.13-1.44 1.91-2.36 4.02v10.08q.92-.63 2.95-1.93 2.04-1.3 4.29-3.22 2.25-1.91 3.83-4.37t1.58-5.37q0-1.44-.93-2.5-.93-1.05-3-1.05"/><rect width="567.209" height="24.86" x="208.624" y="607.193" fill="none" rx="0" ry="0" transform="matrix(.99 0 0 .99 280 304.39)"/><path fill="#fff" d="M501.526 909.457v1.73h3.9v13.45h1.85v-13.45h3.9v-1.73Zm24.77 6.07v1.73h10.41v-1.73Zm11.02-6.07h-1.84v15.18h1.84Zm-10.19 0h-1.84v15.18h1.84Zm26.86 13.44v1.74h7.65v-1.74Zm0-13.44v1.73h7.65v-1.73Zm0 6.07v1.73h7.22v-1.73Zm.82-6.07h-1.84v15.18h1.84Zm41.93 13.44v1.74h7.65v-1.74Zm0-13.44v1.73h7.65v-1.73Zm0 6.07v1.73h7.22v-1.73Zm.82-6.07h-1.84v15.18h1.84Zm32 0h-2.16l-3.23 5.61-3.17-5.61h-2.17l4.4 7.22-4.94 7.96h2.17l3.68-6.36 3.58 6.36h2.17l-4.81-7.96Zm16.29 0h-1.84v15.18h1.84Zm14.11 0v1.73h3.91v13.45h1.84v-13.45h3.9v-1.73Zm43.42 15.18 1.13-10.26 4.94 8.85 4.95-8.85 1.12 10.26h1.85l-1.85-15.94-6.07 10.99-6.07-10.99-1.84 15.94Zm29.83-7.59q0-1.72.74-3.06.75-1.34 2.05-2.12t2.95-.78q1.67 0 2.96.78t2.04 2.12.75 3.06q0 1.71-.75 3.05-.75 1.35-2.04 2.13t-2.96.78q-1.65 0-2.95-.78t-2.05-2.13q-.74-1.34-.74-3.05m-1.96 0q0 1.65.58 3.08.57 1.43 1.61 2.48t2.45 1.65q1.41.59 3.06.59 1.67 0 3.07-.59 1.4-.6 2.44-1.65t1.61-2.48q.58-1.43.58-3.08 0-1.67-.58-3.09-.57-1.42-1.61-2.47-1.04-1.06-2.44-1.65-1.4-.6-3.07-.6-1.65 0-3.06.6-1.41.59-2.45 1.65-1.04 1.05-1.61 2.47-.58 1.42-.58 3.09m40.58-7.59-4.99 11.75-4.98-11.75h-2.06l7.04 15.94 7.05-15.94Zm17.9 0h-1.84v15.18h1.84Zm16.65 13.44v1.74h7.66v-1.74Zm0-13.44v1.73h7.66v-1.73Zm0 6.07v1.73h7.22v-1.73Zm.83-6.07h-1.85v15.18h1.85Zm42.75 0h-1.84v15.18h1.84Zm-.82 0v1.73h3.1q1.48 0 2.4.71.92.7.92 2.11 0 1.39-.92 2.11-.92.71-2.4.71h-3.1v1.74h3.1q1.48 0 2.64-.56 1.16-.55 1.84-1.58t.68-2.42q0-1.41-.68-2.43t-1.84-1.57-2.64-.55Zm24.87 0h-1.84v15.18h7.8v-1.74h-5.96Zm22.18 8.89-.65 1.73h8.02l-.65-1.73Zm.76.56 2.56-6.03 2.6 6.12.17.43 2.21 5.21h2.06l-7.04-15.94-7.05 15.94h2.06l2.26-5.34Zm22.09-9.45v1.73h3.91v13.45h1.84v-13.45h3.9v-1.73Zm24.79 0v1.73h6.78v-1.73Zm0 6.07v1.73h6.57v-1.73Zm.82-6.07h-1.84v15.18h1.84Zm22.25 7.59q0-1.72.74-3.06.75-1.34 2.05-2.12t2.95-.78q1.67 0 2.96.78t2.04 2.12.75 3.06q0 1.71-.75 3.05-.75 1.35-2.04 2.13t-2.96.78q-1.65 0-2.95-.78t-2.05-2.13q-.74-1.34-.74-3.05m-1.96 0q0 1.65.58 3.08.57 1.43 1.61 2.48 1.05 1.05 2.45 1.65 1.41.59 3.06.59 1.67 0 3.07-.59 1.4-.6 2.44-1.65t1.61-2.48q.58-1.43.58-3.08 0-1.67-.58-3.09-.57-1.42-1.61-2.47-1.04-1.06-2.44-1.65-1.4-.6-3.07-.6-1.65 0-3.06.6-1.4.59-2.45 1.65-1.04 1.05-1.61 2.47-.58 1.42-.58 3.09m34.93.11h-2.06l5.21 7.48h2.28Zm-2.92-7.7h-1.85v15.18h1.85Zm-.83 0v1.63h3.1q.98 0 1.73.34.75.35 1.17 1t.42 1.58-.42 1.59q-.42.65-1.17.99-.75.35-1.73.35h-3.1v1.63h3.1q1.48 0 2.64-.56 1.16-.55 1.84-1.58t.68-2.42q0-1.41-.68-2.43t-1.84-1.57-2.64-.55Zm24.27 15.18 1.12-10.26 4.95 8.85 4.94-8.85 1.13 10.26h1.84l-1.84-15.94-6.07 10.99-6.07-10.99-1.85 15.94Z"/><path fill="#d5ccdc" d="M853.583 613.53H679.239a4.995 4.995 0 0 0-4.995 4.995v104.6a4.995 4.995 0 0 0 4.995 4.994h79.698v19.906h-14.948a4.995 4.995 0 1 0 0 9.953h39.849a4.995 4.995 0 0 0 0-9.953H768.89V728.12h84.693a4.995 4.995 0 0 0 4.995-4.995v-104.6a4.995 4.995 0 0 0-4.995-4.977m-4.995 104.618H684.234v-94.664h164.39Z"/><path fill="#d5ccdc" d="M754.275 689.897q.204.481.463.888c.129.185.166.407.295.592q.11.056.185.148.555.555 1.24.962.204.167.444.296.925.426 2.035.444.925 0 1.776-.35.315-.13.592-.334.37-.167.74-.389l19.925-15.947c.185-.148.259-.333.407-.48l.37-.297.203-.407q.278-.407.463-.888a4.81 4.81 0 0 0-.463-4.532l-.185-.407c-.13-.148-.314-.204-.444-.352s-.185-.296-.351-.425l-19.925-15.947q-.277-.167-.555-.278-.444-.296-.925-.48-.481-.149-1-.186c-.221-.037-.406-.148-.628-.148l-.277.056q-.481.055-.981.203-.462.093-.906.278-.37.222-.703.48-.463.315-.814.685l-.222.185q-.167.26-.296.555-.278.426-.463.925-.148.481-.185 1-.092.295-.13.628v31.876c0 .222.093.407.112.63q.055.517.203 1.016m9.639-23.162 6.974 5.57-6.974 5.586Z"/></g><path fill="transparent" stroke="transparent" stroke-width="1.779" d="M250 467.972h1000v564.056H250z"/></g></svg>